<svg width="46" height="46" viewBox="0 0 46 46" fill="none" xmlns="http://www.w3.org/2000/svg">
<g clip-path="url(#clip0_1_286)">
<path fill-rule="evenodd" clip-rule="evenodd" d="M22.9997 0C12.7404 9.61328e-06 4.40262 8.33821 4.40288 18.5975C4.40235 21.2345 4.40233 24.0191 4.40235 26.3012C4.40235 28.6608 6.33283 30.5913 8.69239 30.5913C11.0519 30.5913 12.9824 28.6608 12.9824 26.3012V19.6981C12.9824 17.3385 11.0519 15.408 8.69239 15.408C7.92892 15.408 7.21101 15.6111 6.58825 15.9645C7.84724 8.02849 14.705 1.97657 22.9997 1.97656C31.2946 1.97657 38.1528 8.0287 39.4121 15.965C38.7891 15.6113 38.0708 15.408 37.3069 15.408C34.9474 15.408 33.0171 17.3385 33.0171 19.6981V26.3012C33.0171 28.6608 34.9474 30.5913 37.3069 30.5913C38.0595 30.5913 38.768 30.3941 39.3846 30.0501C38.21 36.5055 32.7209 41.4358 26.0059 41.7519C25.5653 40.5159 24.3792 39.6211 22.9998 39.6211C21.2501 39.6211 19.8104 41.0608 19.8104 42.8105C19.8104 44.5603 21.2501 46 22.9998 46C24.4314 46 25.655 45.036 26.0528 43.7272C34.6882 43.3424 41.5973 36.2014 41.5977 27.4657C41.5968 24.5091 41.5976 21.5547 41.5975 18.5973C41.5971 8.33789 33.259 1.46445e-05 22.9997 0ZM8.69239 17.3846C9.99111 17.3846 11.0059 18.3993 11.0059 19.6981V26.3012C11.0059 27.6 9.99111 28.6147 8.69239 28.6147C7.39367 28.6147 6.37909 27.6 6.37909 26.3012C6.37914 24.0969 6.37956 21.8943 6.37944 19.69C6.38369 18.3952 7.39639 17.3846 8.69239 17.3846H8.69239ZM37.3069 17.3846C38.6056 17.3846 39.6204 18.3993 39.6204 19.6981V26.3012C39.6204 27.6 38.6056 28.6147 37.3069 28.6147C36.0082 28.6147 34.9936 27.6 34.9936 26.3012V19.6981C34.9936 18.3993 36.0082 17.3846 37.3069 17.3846ZM22.9998 41.5976C23.6814 41.5976 24.2127 42.129 24.2127 42.8105C24.2127 43.4921 23.6814 44.0234 22.9998 44.0234C22.3183 44.0234 21.7869 43.4921 21.7869 42.8105C21.7869 42.129 22.3183 41.5976 22.9998 41.5976Z" fill="white"/>
<path fill-rule="evenodd" clip-rule="evenodd" d="M32.1147 33.067C31.9914 33.0263 31.8614 33.0102 31.732 33.0198C31.6025 33.0293 31.4762 33.0643 31.3603 33.1226C25.6793 35.9809 20.2239 35.896 14.635 33.1203C14.5187 33.0626 14.3922 33.0283 14.2628 33.0194C14.1333 33.0106 14.0033 33.0273 13.8803 33.0687C13.7572 33.1101 13.6436 33.1753 13.5457 33.2606C13.4479 33.3459 13.3679 33.4496 13.3101 33.5659C13.1936 33.8006 13.175 34.0721 13.2586 34.3205C13.3422 34.5689 13.5211 34.774 13.7558 34.8905C19.8042 37.8944 26.085 37.9893 32.2486 34.8882C32.3645 34.8299 32.4678 34.7493 32.5526 34.6511C32.6374 34.5528 32.7021 34.4388 32.7428 34.3156C32.7835 34.1923 32.7996 34.0623 32.7901 33.9328C32.7805 33.8034 32.7456 33.6771 32.6873 33.5611C32.5695 33.327 32.3635 33.1493 32.1147 33.067V33.067Z" fill="white"/>
</g>
<defs>
<clipPath id="clip0_1_286">
<rect width="46" height="46" fill="white"/>
</clipPath>
</defs>
</svg>
