<svg width="46" height="46" viewBox="0 0 46 46" fill="none" xmlns="http://www.w3.org/2000/svg">
<g clip-path="url(#clip0_1_280)">
<path d="M43.2944 10.7019L23.3964 0.0897094C23.1717 -0.029124 22.9011 -0.029124 22.6772 0.0889427L2.77839 10.6337C2.53919 10.7617 2.37129 11.0377 2.37052 11.3091L2.29999 34.214C2.29922 34.4954 2.45256 34.7545 2.69942 34.8895L22.8781 45.908C23.1081 46.0337 23.3971 46.0307 23.6256 45.9011L43.3136 34.6825C43.5528 34.546 43.7 34.2915 43.7 34.0155V11.3789C43.7 11.0845 43.4608 10.7901 43.2944 10.7019ZM23.2453 21.7802L15.3648 17.2738L33.7525 7.35158L41.3494 11.4034L23.2453 21.7802ZM32.1295 6.48601L13.4228 16.5807C13.1744 16.7149 13.0203 16.974 13.0203 17.2554V22.3L10.5601 20.9423V15.5135L29.9 5.29691L32.1295 6.48601ZM23.0337 1.63454L28.2678 4.42598L9.82712 14.1665L4.74182 11.3283L23.0337 1.63454ZM3.90002 12.6193L9.02672 15.5005V21.3954C9.02672 21.6744 9.17852 21.9313 9.42309 22.067L13.4167 24.2704C13.9181 24.5471 14.5536 24.1715 14.5536 23.5988V18.5763L22.4794 23.1081V43.9423L3.83486 33.7617L3.90002 12.6193ZM42.1667 33.57L24.012 43.9154V23.1073L42.1667 12.7014V33.57Z" fill="white"/>
</g>
<defs>
<clipPath id="clip0_1_280">
<rect width="46" height="46" fill="white"/>
</clipPath>
</defs>
</svg>
