<svg width="46" height="46" viewBox="0 0 46 46" fill="none" xmlns="http://www.w3.org/2000/svg">
<path d="M5.11248 32.2197C4.84798 31.7015 4.60324 31.1664 4.38438 30.6291C4.35798 30.5632 4.3188 30.5031 4.26911 30.4523C4.21941 30.4016 4.16017 30.3611 4.0948 30.3334C4.02942 30.3056 3.9592 30.291 3.88817 30.2904C3.81714 30.2899 3.74669 30.3034 3.68089 30.3301C3.61509 30.3569 3.55522 30.3964 3.50474 30.4463C3.45425 30.4963 3.41414 30.5558 3.3867 30.6213C3.35927 30.6868 3.34506 30.7571 3.34488 30.8281C3.34471 30.8992 3.35857 30.9695 3.38568 31.0352C3.61568 31.6012 3.87371 32.1644 4.15223 32.7099C4.18441 32.7729 4.2287 32.829 4.28257 32.875C4.33643 32.9209 4.39882 32.9558 4.46616 32.9776C4.5335 32.9994 4.60448 33.0078 4.67505 33.0022C4.74562 32.9966 4.8144 32.9771 4.87745 32.9449C4.9405 32.9127 4.99659 32.8684 5.04253 32.8146C5.08846 32.7607 5.12334 32.6983 5.14516 32.631C5.16698 32.5636 5.17533 32.4927 5.16972 32.4221C5.16412 32.3515 5.14466 32.2827 5.11248 32.2197Z" fill="white"/>
<path d="M3.79533 28.9819C3.62211 28.4259 3.47189 27.8567 3.34719 27.2899C3.31494 27.1519 3.22966 27.0322 3.10979 26.9566C2.98993 26.881 2.84513 26.8557 2.70672 26.8861C2.56831 26.9164 2.44742 27.0001 2.37023 27.1189C2.29303 27.2378 2.26572 27.3822 2.29422 27.521C2.42503 28.1176 2.58351 28.7167 2.76536 29.3021C2.80782 29.4387 2.9028 29.5528 3.0294 29.6193C3.15601 29.6859 3.30386 29.6994 3.44044 29.657C3.57703 29.6145 3.69115 29.5195 3.7577 29.3929C3.82425 29.2663 3.83779 29.1185 3.79533 28.9819Z" fill="white"/>
<path d="M2.57949 26.1718C2.72121 26.1531 2.8497 26.0788 2.93671 25.9654C3.02372 25.852 3.06211 25.7087 3.04344 25.5669C2.96725 24.9919 2.91478 24.4061 2.88675 23.8229C2.88429 23.7519 2.86764 23.6821 2.83779 23.6176C2.80794 23.5532 2.76549 23.4954 2.71294 23.4476C2.6604 23.3998 2.59881 23.363 2.53182 23.3394C2.46483 23.3158 2.3938 23.3058 2.32289 23.31C2.25217 23.3134 2.1828 23.3307 2.11875 23.3608C2.0547 23.391 1.99722 23.4335 1.9496 23.4859C1.90198 23.5383 1.86515 23.5996 1.8412 23.6662C1.81726 23.7328 1.80668 23.8035 1.81006 23.8743C1.83917 24.4877 1.89452 25.1044 1.9743 25.7071C1.98355 25.7773 2.00655 25.845 2.04198 25.9063C2.0774 25.9676 2.12457 26.0214 2.18077 26.0644C2.23697 26.1075 2.30111 26.1391 2.36952 26.1574C2.43794 26.1757 2.50928 26.1803 2.57949 26.171V26.1718Z" fill="white"/>
<path d="M12.0038 40.0028C11.5219 39.6772 11.0478 39.3278 10.5947 38.9627C10.5395 38.9184 10.4761 38.8853 10.4082 38.8654C10.3402 38.8456 10.269 38.8393 10.1987 38.8469C10.1283 38.8545 10.0601 38.876 9.998 38.91C9.9359 38.944 9.88111 38.9899 9.83675 39.045C9.79238 39.1002 9.75932 39.1636 9.73945 39.2315C9.71958 39.2995 9.71328 39.3706 9.72092 39.441C9.72857 39.5114 9.74999 39.5796 9.78399 39.6417C9.81798 39.7038 9.86387 39.7586 9.91904 39.8029C10.3956 40.186 10.8937 40.5544 11.4011 40.8962C11.5194 40.9762 11.6647 41.0061 11.805 40.9791C11.9453 40.9522 12.0691 40.8706 12.1493 40.7524C12.1891 40.6937 12.2169 40.6277 12.2311 40.5582C12.2453 40.4886 12.2457 40.417 12.2322 40.3474C12.2187 40.2777 12.1915 40.2114 12.1523 40.1523C12.1131 40.0932 12.0627 40.0423 12.0038 40.0028Z" fill="white"/>
<path d="M5.97323 33.7452C5.9366 33.6836 5.88804 33.6298 5.83039 33.5872C5.77274 33.5445 5.70716 33.5138 5.63749 33.4968C5.56782 33.4798 5.49545 33.4769 5.42464 33.4882C5.35382 33.4995 5.28598 33.5249 5.22508 33.5627C5.16418 33.6006 5.11145 33.6503 5.06998 33.7088C5.02851 33.7673 4.99913 33.8335 4.98356 33.9035C4.96799 33.9735 4.96655 34.0459 4.97931 34.1165C4.99208 34.187 5.0188 34.2543 5.0579 34.3145C5.38134 34.833 5.72921 35.3448 6.09506 35.8357C6.13737 35.8925 6.19044 35.9404 6.25126 35.9766C6.31207 36.0129 6.37944 36.0368 6.4495 36.047C6.51956 36.0573 6.59095 36.0536 6.6596 36.0362C6.72824 36.0189 6.79279 35.9881 6.84956 35.9458C6.90634 35.9035 6.95422 35.8505 6.99049 35.7896C7.02675 35.7288 7.05067 35.6615 7.0609 35.5914C7.07113 35.5213 7.06746 35.4499 7.0501 35.3813C7.03273 35.3127 7.00202 35.2481 6.95971 35.1913C6.61256 34.7227 6.28014 34.2365 5.97323 33.7452Z" fill="white"/>
<path d="M8.06368 36.5486C7.96889 36.4416 7.83546 36.3766 7.69275 36.3679C7.55004 36.3593 7.40974 36.4077 7.3027 36.5024C7.19567 36.5972 7.13067 36.7307 7.12201 36.8734C7.11335 37.0161 7.16173 37.1564 7.25652 37.2634C7.66297 37.722 8.09315 38.168 8.53482 38.5895C8.58558 38.6406 8.64605 38.6809 8.71266 38.7082C8.77927 38.7355 8.85067 38.7491 8.92265 38.7484C8.99462 38.7476 9.06572 38.7325 9.13174 38.7038C9.19777 38.6751 9.25738 38.6335 9.30707 38.5814C9.35675 38.5294 9.3955 38.4679 9.42103 38.4005C9.44656 38.3332 9.45835 38.2615 9.45571 38.1896C9.45307 38.1176 9.43605 38.047 9.40565 37.9817C9.37525 37.9165 9.3321 37.858 9.27872 37.8097C8.85862 37.4079 8.45001 36.9835 8.06368 36.5486Z" fill="white"/>
<path d="M23.5688 1.04224C20.075 1.04566 16.6331 1.88772 13.5323 3.49764C10.4315 5.10757 7.76248 7.43831 5.74956 10.294C5.66721 10.4109 5.63467 10.5557 5.6591 10.6966C5.68353 10.8375 5.76293 10.9629 5.87983 11.0453C5.99673 11.1276 6.14156 11.1601 6.28245 11.1357C6.42334 11.1113 6.54875 11.0319 6.6311 10.915C8.89159 7.70455 12.0185 5.20324 15.647 3.70295C19.2755 2.20267 23.2558 1.7653 27.1235 2.44188C30.9912 3.11847 34.5866 4.88111 37.4903 7.52409C40.394 10.1671 42.4861 13.5814 43.5224 17.3685C44.5588 21.1557 44.4967 25.1595 43.3433 28.9127C42.19 32.6659 39.993 36.0136 37.0087 38.5653C34.0244 41.1169 30.376 42.7672 26.4892 43.3234C22.6024 43.8797 18.6376 43.3191 15.0574 41.7069C14.5291 41.4683 14.003 41.2038 13.4941 40.9192C13.4323 40.8841 13.3641 40.8615 13.2935 40.8529C13.2229 40.8442 13.1513 40.8496 13.0828 40.8687C13.0143 40.8878 12.9503 40.9203 12.8944 40.9643C12.8385 41.0083 12.7919 41.0629 12.7572 41.125C12.7225 41.1871 12.7005 41.2554 12.6923 41.3261C12.6841 41.3967 12.69 41.4683 12.7097 41.5367C12.7293 41.605 12.7623 41.6688 12.8067 41.7244C12.851 41.7799 12.906 41.8262 12.9683 41.8604C13.5042 42.1594 14.0576 42.4386 14.6139 42.6895C17.5763 44.0247 20.8 44.6803 24.0486 44.6082C27.2972 44.5362 30.4886 43.7383 33.3889 42.2732C36.2893 40.808 38.8251 38.7125 40.8108 36.1403C42.7964 33.5682 44.1814 30.5844 44.8645 27.4075C45.5476 24.2307 45.5114 20.9413 44.7585 17.7803C44.0056 14.6193 42.5552 11.6668 40.5134 9.13892C38.4716 6.61108 35.8902 4.572 32.9583 3.17104C30.0264 1.77007 26.8182 1.04271 23.5688 1.04224Z" fill="white"/>
<path d="M5.91262 12.4384C5.55678 12.4378 5.21274 12.3107 4.94188 12.08C4.67102 11.8492 4.49095 11.5297 4.43379 11.1785L3.98529 8.39368C3.96654 8.25436 4.00295 8.11322 4.08677 8.00037C4.17059 7.88751 4.29518 7.81186 4.43397 7.78955C4.57277 7.76724 4.71479 7.80003 4.82976 7.88093C4.94472 7.96183 5.02354 8.08444 5.0494 8.22262L5.49898 11.0071C5.51733 11.1169 5.57827 11.2151 5.66856 11.2803C5.75885 11.3455 5.87121 11.3724 5.98126 11.3553L8.76569 10.9068C8.90502 10.888 9.04615 10.9245 9.15901 11.0083C9.27186 11.0921 9.34751 11.2167 9.36982 11.3555C9.39214 11.4943 9.35935 11.6363 9.27845 11.7513C9.19755 11.8662 9.07494 11.945 8.93676 11.9709L6.15232 12.4194C6.07306 12.4322 5.9929 12.4385 5.91262 12.4384Z" fill="white"/>
<path d="M37.4916 13.618L24.3935 6.71552C24.145 6.58417 23.8683 6.5155 23.5872 6.5155C23.3062 6.5155 23.0294 6.58417 22.781 6.71552L9.6821 13.618C9.4032 13.7644 9.16971 13.9844 9.00696 14.2541C8.84421 14.5238 8.75841 14.8329 8.75887 15.1479V30.5022C8.75834 30.8172 8.84411 31.1264 9.00687 31.3962C9.16962 31.6659 9.40315 31.886 9.6821 32.0324L22.781 38.9349C23.0295 39.0659 23.3063 39.1344 23.5872 39.1344C23.8682 39.1344 24.1449 39.0659 24.3935 38.9349L37.4916 32.0324C37.7706 31.886 38.0042 31.666 38.1671 31.3962C38.3299 31.1265 38.4157 30.8173 38.4152 30.5022V15.1479C38.4156 14.8329 38.3298 14.5237 38.167 14.254C38.0041 13.9843 37.7706 13.7644 37.4916 13.618ZM18.4771 18.0405C18.1911 18.1841 17.9508 18.4046 17.7833 18.6772C17.6157 18.9498 17.5274 19.2637 17.5283 19.5837V25.7433C17.5296 25.7549 17.5266 25.7665 17.52 25.7761C17.5134 25.7856 17.5036 25.7925 17.4924 25.7955C17.4823 25.8011 17.4705 25.8029 17.4592 25.8004C17.4478 25.798 17.4378 25.7915 17.4309 25.7822L16.2529 24.5524C16.1183 24.4132 15.9505 24.3104 15.7653 24.2539C15.5802 24.1973 15.3836 24.1887 15.1942 24.2289L14.4255 24.3946C14.4173 24.3963 14.4088 24.3962 14.4007 24.3942C14.3926 24.3922 14.385 24.3885 14.3785 24.3832C14.372 24.378 14.3667 24.3713 14.3631 24.3638C14.3595 24.3562 14.3576 24.348 14.3576 24.3396V17.4339C14.3571 17.3134 14.3902 17.1951 14.4534 17.0924C14.5165 16.9897 14.607 16.9067 14.7148 16.8528L28.2848 9.98475L31.2777 11.5621L18.4771 18.0405ZM23.2834 7.66894C23.3771 7.61962 23.4813 7.59385 23.5872 7.59385C23.6931 7.59385 23.7974 7.61962 23.8911 7.66894L27.1154 9.36807L14.2289 15.8907C14.0982 15.9573 13.9766 16.0404 13.867 16.138L10.4727 14.4198L23.2834 7.66894ZM23.048 37.8564L10.1849 31.0783C10.0799 31.0233 9.99203 30.9407 9.93071 30.8393C9.86939 30.7379 9.83698 30.6217 9.83699 30.5033V15.3064L13.3229 17.0702C13.2959 17.1896 13.2817 17.3115 13.2805 17.4339V24.3385C13.2806 24.5077 13.3184 24.6748 13.3914 24.8275C13.4643 24.9801 13.5705 25.1145 13.7021 25.2209C13.8337 25.3272 13.9875 25.4027 14.152 25.442C14.3166 25.4812 14.4879 25.4831 14.6533 25.4476L15.422 25.2823C15.4315 25.2797 15.4414 25.2799 15.4508 25.2827C15.4601 25.2856 15.4685 25.291 15.4749 25.2984L16.6536 26.5282C16.8102 26.6917 17.0122 26.8046 17.2335 26.8523C17.4548 26.9 17.6853 26.8805 17.8954 26.7961C18.1054 26.7117 18.2855 26.5664 18.4122 26.3788C18.539 26.1913 18.6068 25.9701 18.6068 25.7437V19.745L22.8068 21.8704C22.8847 21.9092 22.9654 21.9419 23.0483 21.9681L23.048 37.8564ZM23.2934 20.9087L19.2458 18.8602L32.4471 12.1784L36.7017 14.4202L23.8817 20.909C23.7905 20.9549 23.6897 20.9788 23.5876 20.9788C23.4854 20.9788 23.3847 20.9546 23.2934 20.9087ZM37.3371 30.5018C37.337 30.6203 37.3046 30.7365 37.2433 30.8378C37.1819 30.9391 37.0941 31.0218 36.9892 31.0768L24.1261 37.8572V21.9685C24.2095 21.9421 24.2907 21.9093 24.369 21.8704L37.3371 15.3067V30.5018Z" fill="white"/>
</svg>
